ffmpeg version 4.2.7-0ubuntu0.1 Copyright (c) 2000-2022 the FFmpeg developers
  built with gcc 9 (Ubuntu 9.4.0-1ubuntu1~20.04.1)
  configuration: --prefix=/usr --extra-version=0ubuntu0.1 --toolchain=hardened --libdir=/usr/lib/x86_64-linux-gnu --incdir=/usr/include/x86_64-linux-gnu --arch=amd64 --enable-gpl --disable-stripping --enable-avresample --disable-filter=resample --enable-avisynth --enable-gnutls --enable-ladspa --enable-libaom --enable-libass --enable-libbluray --enable-libbs2b --enable-libcaca --enable-libcdio --enable-libcodec2 --enable-libflite --enable-libfontconfig --enable-libfreetype --enable-libfribidi --enable-libgme --enable-libgsm --enable-libjack --enable-libmp3lame --enable-libmysofa --enable-libopenjpeg --enable-libopenmpt --enable-libopus --enable-libpulse --enable-librsvg --enable-librubberband --enable-libshine --enable-libsnappy --enable-libsoxr --enable-libspeex --enable-libssh --enable-libtheora --enable-libtwolame --enable-libvidstab --enable-libvorbis --enable-libvpx --enable-libwavpack --enable-libwebp --enable-libx265 --enable-libxml2 --enable-libxvid --enable-libzmq --enable-libzvbi --enable-lv2 --enable-omx --enable-openal --enable-opencl --enable-opengl --enable-sdl2 --enable-libdc1394 --enable-libdrm --enable-libiec61883 --enable-nvenc --enable-chromaprint --enable-frei0r --enable-libx264 --enable-shared
  libavutil      56. 31.100 / 56. 31.100
  libavcodec     58. 54.100 / 58. 54.100
  libavformat    58. 29.100 / 58. 29.100
  libavdevice    58.  8.100 / 58.  8.100
  libavfilter     7. 57.100 /  7. 57.100
  libavresample   4.  0.  0 /  4.  0.  0
  libswscale      5.  5.100 /  5.  5.100
  libswresample   3.  5.100 /  3.  5.100
  libpostproc    55.  5.100 / 55.  5.100
Routing option strict to both codec and muxer layer
[h264 @ 0x5582e5da2a80] Reinit context to 480x864, pix_fmt: yuvj420p
Input #0, mov,mp4,m4a,3gp,3g2,mj2, from '/var/www/html/project/media/video/original/VID-20250806-WA0009.mp4':
  Metadata:
    major_brand     : mp42
    minor_version   : 0
    compatible_brands: mp42isom
  Duration: 00:00:18.47, start: 0.000000, bitrate: 1690 kb/s
    Stream #0:0(und): Video: h264 (High), 1 reference frame (avc1 / 0x31637661), yuvj420p(pc, bt470bg/bt470bg/smpte170m, left), 478x850 (480x864), 1593 kb/s, 29.99 fps, 30 tbr, 30k tbn, 60k tbc (default)
    Stream #0:1(und): Audio: aac (LC) (mp4a / 0x6134706D), 48000 Hz, stereo, fltp, 96 kb/s (default)
Input #1, png_pipe, from '/var/www/html/project/static/images/templates/logo_vertical.png':
  Duration: N/A, bitrate: N/A
    Stream #1:0: Video: png, 1 reference frame, rgba(pc), 1920x1080 [SAR 2835:2835 DAR 16:9], 25 tbr, 25 tbn, 25 tbc
[Parsed_scale_1 @ 0x5582e5db3a80] w:1280 h:720 flags:'bilinear' interl:0
[Parsed_scale_4 @ 0x5582e5dd5d80] w:-1 h:720 flags:'bilinear' interl:0
[Parsed_scale_6 @ 0x5582e5e9a180] w:1280 h:720 flags:'bilinear' interl:0
Stream mapping:
  Stream #0:0 (h264) -> split (graph 0)
  Stream #1:0 (png) -> scale (graph 0)
  overlay (graph 0) -> Stream #0:0 (libx264)
  Stream #0:1 -> #0:1 (aac (native) -> aac (native))
Press [q] to stop, [?] for help
[h264 @ 0x5582e5ddf080] Reinit context to 480x864, pix_fmt: yuvj420p
[graph_1_in_0_1 @ 0x5582e631e240] tb:1/48000 samplefmt:fltp samplerate:48000 chlayout:0x3
[Parsed_scale_1 @ 0x5582e64c13c0] w:1280 h:720 flags:'bilinear' interl:0
[Parsed_scale_4 @ 0x5582e64c44c0] w:-1 h:720 flags:'bilinear' interl:0
[Parsed_scale_6 @ 0x5582e64c5d80] w:1280 h:720 flags:'bilinear' interl:0
[graph 0 input from stream 0:0 @ 0x5582e64c1e00] w:478 h:850 pixfmt:yuvj420p tb:1/30000 fr:30/1 sar:0/1 sws_param:flags=2
[graph 0 input from stream 1:0 @ 0x5582e64c7300] w:1920 h:1080 pixfmt:rgba tb:1/25 fr:25/1 sar:2835/2835 sws_param:flags=2
[swscaler @ 0x5582e64d0e40] deprecated pixel format used, make sure you did set range correctly
[Parsed_scale_1 @ 0x5582e64c13c0] w:478 h:850 fmt:yuvj420p sar:0/1 -> w:1280 h:720 fmt:yuvj420p sar:0/1 flags:0x2
[Parsed_boxblur_2 @ 0x5582e64c17c0] luma_radius:36 luma_power:1 chroma_radius:18 chroma_power:1 alpha_radius:36 alpha_power:1 w:1280 chroma_w:640 h:720 chroma_h:360
[Parsed_setsar_3 @ 0x5582e64c36c0] w:1280 h:720 sar:0/1 dar:16/9 -> sar:1/1 dar:16/9
[swscaler @ 0x5582e650b940] deprecated pixel format used, make sure you did set range correctly
[Parsed_scale_4 @ 0x5582e64c44c0] w:478 h:850 fmt:yuvj420p sar:0/1 -> w:405 h:720 fmt:yuva420p sar:0/1 flags:0x2
[Parsed_setsar_5 @ 0x5582e64c5100] w:405 h:720 sar:0/1 dar:9/16 -> sar:1/1 dar:9/16
[Parsed_overlay_8 @ 0x5582e64c7500] main w:1280 h:720 fmt:yuvj420p overlay w:405 h:720 fmt:yuva420p
[Parsed_overlay_8 @ 0x5582e64c7500] [framesync @ 0x5582e64c7628] Selected 1/30000 time base
[Parsed_overlay_8 @ 0x5582e64c7500] [framesync @ 0x5582e64c7628] Sync level 2
[Parsed_scale_6 @ 0x5582e64c5d80] w:1920 h:1080 fmt:rgba sar:2835/2835 -> w:1280 h:720 fmt:yuva420p sar:1/1 flags:0x2
[Parsed_setsar_7 @ 0x5582e64c6840] w:1280 h:720 sar:1/1 dar:16/9 -> sar:1/1 dar:16/9
[Parsed_overlay_9 @ 0x5582e64c0ec0] main w:1280 h:720 fmt:yuvj420p overlay w:1280 h:720 fmt:yuva420p
[Parsed_overlay_9 @ 0x5582e64c0ec0] [framesync @ 0x5582e64c3028] Selected 1/30000 time base
[Parsed_overlay_9 @ 0x5582e64c0ec0] [framesync @ 0x5582e64c3028] Sync level 2
[libx264 @ 0x5582e5ef3240] using SAR=1/1
[libx264 @ 0x5582e5ef3240] using cpu capabilities: MMX2 SSE2Fast SSSE3 SSE4.2 AVX FMA3 BMI2 AVX2
[libx264 @ 0x5582e5ef3240] profile High, level 3.1
[libx264 @ 0x5582e5ef3240] 264 - core 155 r2917 0a84d98 - H.264/MPEG-4 AVC codec - Copyleft 2003-2018 - http://www.videolan.org/x264.html - options: cabac=1 ref=1 deblock=1:0:0 analyse=0x3:0x113 me=hex subme=2 psy=1 psy_rd=1.00:0.00 mixed_ref=0 me_range=16 chroma_me=1 trellis=0 8x8dct=1 cqm=0 deadzone=21,11 fast_pskip=1 chroma_qp_offset=0 threads=22 lookahead_threads=5 sliced_threads=0 nr=0 decimate=1 interlaced=0 bluray_compat=0 constrained_intra=0 bframes=3 b_pyramid=2 b_adapt=1 b_bias=0 direct=1 weightb=1 open_gop=0 weightp=1 keyint=250 keyint_min=25 scenecut=40 intra_refresh=0 rc_lookahead=10 rc=crf mbtree=1 crf=18.0 qcomp=0.60 qpmin=0 qpmax=69 qpstep=4 ip_ratio=1.40 aq=1:1.00
Output #0, mp4, to '/var/www/html/project/media/video/watermarks/VID-20250806-WA0009.mp4':
  Metadata:
    major_brand     : mp42
    minor_version   : 0
    compatible_brands: mp42isom
    encoder         : Lavf58.29.100
    Stream #0:0: Video: h264 (libx264), 1 reference frame (avc1 / 0x31637661), yuvj420p(pc), 1280x720 [SAR 1:1 DAR 16:9], q=-1--1, 30 fps, 15360 tbn, 30 tbc (default)
    Metadata:
      encoder         : Lavc58.54.100 libx264
    Side data:
      cpb: bitrate max/min/avg: 0/0/0 buffer size: 0 vbv_delay: -1
    Stream #0:1(und): Audio: aac (LC) (mp4a / 0x6134706D), 48000 Hz, stereo, fltp, delay 1024, 128 kb/s (default)
    Metadata:
      encoder         : Lavc58.54.100 aac
[Parsed_overlay_8 @ 0x5582e64c7500] [framesync @ 0x5582e64c7628] Sync level 1
[Parsed_overlay_8 @ 0x5582e64c7500] [framesync @ 0x5582e64c7628] Sync level 0
[Parsed_overlay_9 @ 0x5582e64c0ec0] [framesync @ 0x5582e64c3028] Sync level 0
No more output streams to write to, finishing.
frame=  553 fps= 29 q=-1.0 Lsize=   13026kB time=00:00:18.47 bitrate=5776.0kbits/s speed=0.967x    
[AVIOContext @ 0x5582e5da0d00] Statistics: 0 seeks, 37 writeouts
video:12711kB audio:293kB subtitle:0kB other streams:0kB global headers:0kB muxing overhead: 0.162619%
Input file #0 (/var/www/html/project/media/video/original/VID-20250806-WA0009.mp4):
  Input stream #0:0 (video): 553 packets read (3672784 bytes); 553 frames decoded; 
  Input stream #0:1 (audio): 866 packets read (222366 bytes); 866 frames decoded (886784 samples); 
  Total: 1419 packets (3895150 bytes) demuxed
Input file #1 (/var/www/html/project/static/images/templates/logo_vertical.png):
  Input stream #1:0 (video): 1 packets read (93903 bytes); 1 frames decoded; 
  Total: 1 packets (93903 bytes) demuxed
Output file #0 (/var/www/html/project/media/video/watermarks/VID-20250806-WA0009.mp4):
  Output stream #0:0 (video): 553 frames encoded; 553 packets muxed (13016567 bytes); 
  Output stream #0:1 (audio): 866 frames encoded (886784 samples); 867 packets muxed (300483 bytes); 
  Total: 1420 packets (13317050 bytes) muxed
[AVIOContext @ 0x5582e5dd1180] Statistics: 2 seeks, 54 writeouts
[libx264 @ 0x5582e5ef3240] frame I:4     Avg QP:17.40  size: 95132
[libx264 @ 0x5582e5ef3240] frame P:140   Avg QP:19.84  size: 48957
[libx264 @ 0x5582e5ef3240] frame B:409   Avg QP:22.02  size: 14135
[libx264 @ 0x5582e5ef3240] consecutive B-frames:  1.1%  0.0%  2.7% 96.2%
[libx264 @ 0x5582e5ef3240] mb I  I16..4: 13.2% 48.0% 38.9%
[libx264 @ 0x5582e5ef3240] mb P  I16..4:  9.1% 25.9%  3.3%  P16..4: 23.9% 15.2% 14.9%  0.0%  0.0%    skip: 7.8%
[libx264 @ 0x5582e5ef3240] mb B  I16..4:  1.7%  3.0%  0.2%  B16..8: 22.2% 11.0%  4.1%  direct:14.7%  skip:43.1%  L0:34.9% L1:40.9% BI:24.2%
[libx264 @ 0x5582e5ef3240] 8x8 transform intra:65.0% inter:24.4%
[libx264 @ 0x5582e5ef3240] coded y,uvDC,uvAC intra: 46.9% 65.0% 8.2% inter: 19.9% 24.8% 1.8%
[libx264 @ 0x5582e5ef3240] i16 v,h,dc,p: 13% 30%  9% 48%
[libx264 @ 0x5582e5ef3240] i8 v,h,dc,ddl,ddr,vr,hd,vl,hu: 16% 42% 12%  4%  6%  4%  9%  3%  4%
[libx264 @ 0x5582e5ef3240] i4 v,h,dc,ddl,ddr,vr,hd,vl,hu: 19% 16% 10%  6% 11% 11% 10%  8%  8%
[libx264 @ 0x5582e5ef3240] i8c dc,h,v,p: 39% 29% 10% 22%
[libx264 @ 0x5582e5ef3240] Weighted P-Frames: Y:1.4% UV:0.0%
[libx264 @ 0x5582e5ef3240] kb/s:5648.84
[aac @ 0x5582e5f2b140] Qavg: 357.298
[AVIOContext @ 0x5582e5da9cc0] Statistics: 3904355 bytes read, 0 seeks
[AVIOContext @ 0x5582e5db3040] Statistics: 93903 bytes read, 0 seeks
